<svg xmlns="http://www.w3.org/2000/svg" viewBox="0 0 913.04 165.67"><defs><style>.cls-1{fill:#329565;}.cls-2{fill:#7ccaaf;}</style></defs><title>Asset 1</title><g id="Layer_2" data-name="Layer 2"><g id="Layer_1-2" data-name="Layer 1"><path class="cls-1" d="M0,35.12A42.3,42.3,0,0,1,3.88,17.67,30.18,30.18,0,0,1,13.14,5.6Q20.58,0,31.67,0,42.59,0,50,5.6a29.47,29.47,0,0,1,9.62,12.07q3.57,7.21,3.89,17.45V57.41H41.26V35.12A14.41,14.41,0,0,0,37.7,25a7.46,7.46,0,0,0-5.49-1.83q-5.07,0-7.33,6a26.35,26.35,0,0,0-1.07,5.93v95.54a16.23,16.23,0,0,0,3.77,10.12,6.24,6.24,0,0,0,4.63,1.73q6.13,0,8.08-5.93a15.3,15.3,0,0,0,1-5.92v-22.3H63.55v22.3q-.33,10.46-3.89,17.66A29.6,29.6,0,0,1,50,160.17q-6.81,5.51-18.37,5.5-11.75,0-18.53-5.5a30.1,30.1,0,0,1-9.26-11.85Q.32,141.1,0,130.66Z"/><path class="cls-1" d="M117.81,1.83h29L171,163.94H148.09l-4.4-33.07H120.82l-4.29,33.07H93.15Zm22.65,103.84L133.59,54.5,133,50.3h-1.29L131,54.5l-6.87,51.17Z"/><path class="cls-1" d="M204.29,1.83h21.22l23.16,84.45,1.94,7.54h1.3v-92h21.86V163.94H252.55L229.39,79.49,227.45,72h-1.29v92H204.29Z"/><path class="cls-1" d="M313.39,1.83h21.22l23.16,84.45,1.94,7.54H361v-92h21.87V163.94H361.65L338.49,79.49,336.55,72h-1.3v92H313.39Z"/><path class="cls-1" d="M440.47,1.83h29l24.23,162.11H470.74l-4.4-33.07H443.47l-4.29,33.07H415.81Zm22.65,103.84L456.25,54.5l-.65-4.2h-1.28l-.64,4.2-6.88,51.17Z"/><path class="cls-1" d="M545.48,116.37q0,13.06,1.93,18.79,2.49,8.85,9.27,8.86,9.8,0,9.8-17.93,0-6.7-6.25-17.93-2.91-4.75-6.14-9.72-7-9.93-15-22.36a97.13,97.13,0,0,1-11.74-25.27,44.39,44.39,0,0,1-1.94-13q0-15.44,7-25.52,8.63-12,24-12.33h.86q18.85,0,26.5,14.27,6,11.49,6,28.66l-23.37,2.16q0-10.26-1.83-15.88-2.58-7.56-7.76-7.56-8.07.33-8.07,16.2,0,7.13,5.92,17.39,2.68,4.75,12.82,19.55,10.77,16.09,15.19,24.73,7.11,13.94,7.1,25.49,0,18.18-6.89,28.4-8.3,12.26-26.28,12.26-20.68,0-28.65-14.53-5.92-10.77-5.93-32.61Z"/><path class="cls-1" d="M624.62,1.83h23.81V163.94H624.62Z"/><path class="cls-1" d="M679.75,1.83h68.83V26.28H726.07V163.94h-23.8V26.28H679.75Z"/><path class="cls-1" d="M779.91,1.83h54.5V26.28h-30.7V68.83h22.08V94.9H803.71v44.59h30.7v24.45h-54.5Z"/><path class="cls-2" d="M913,137.61c0,16.15-12.71,28.06-28.86,28.06-16,0-29-11.83-29-28.3,0-10.16,3.6-16.23,8.87-21.83l4.64,4.32c-4.48,4.71-7.67,10-7.67,17.58,0,12.4,10,21.67,23,21.67s23.19-9.35,23.19-21.67c0-7.67-3-12.71-8.08-18.06l4.08-4.16C909.12,121.06,913,127.45,913,137.61Z"/><path class="cls-2" d="M913,87.8c0,17-13.35,28.46-28.86,28.46s-29-11.59-29-28.62S868.51,59.18,884,59.18,913,70.77,913,87.8Zm-52,0c0,12.79,10.23,21.9,23,21.9s23.19-9.27,23.19-22.06-10.24-21.91-23-21.91S861,75,861,87.8Z"/><path class="cls-2" d="M858.26,37.83a21.83,21.83,0,0,0,4.53,2.69A50.16,50.16,0,0,0,869.51,43a98.27,98.27,0,0,0,12.7,2.83.51.51,0,0,1,.37.15l-.27,0-2.55.11c-1.17.06-2.35.18-3.52.33a30.86,30.86,0,0,0-3.58.65,14.64,14.64,0,0,0-3.15,1.14,4.69,4.69,0,0,0-1.27.89c-.06.06-.11.14-.19.23l.26.11a7.15,7.15,0,0,0,1.59.27,15.56,15.56,0,0,0,2.46-.06A27.63,27.63,0,0,0,876,49a47.38,47.38,0,0,0,7.16-2.49l.27-.1a1.85,1.85,0,0,1,.11.59c0,.81.08,1.61.09,2.42,0,1.05,0,2.09,0,3.14l.4,0c.23,0,.46,0,.7,0,0-.54,0-1.08,0-1.62,0-1.33.21-2.64.39-3.95,0-.22.07-.43.12-.69l.3.11,2,.85a41.65,41.65,0,0,0,6.26,2.05,24.29,24.29,0,0,0,3.79.59,11.9,11.9,0,0,0,2,0,2.83,2.83,0,0,0,.33-.07l-.18-.28a3.72,3.72,0,0,0-.84-.84,7.87,7.87,0,0,0-1.78-1,22.33,22.33,0,0,0-4.81-1.28c-.85-.14-1.71-.26-2.57-.36-.65-.08-1.3-.13-2-.18s-1.11-.07-1.66-.11a.94.94,0,0,1-.15-.06v0l.49-.08c1.43-.22,2.87-.42,4.3-.65q3.62-.57,7.17-1.45a48.62,48.62,0,0,0,7.61-2.47A20.14,20.14,0,0,0,909.32,39a7.47,7.47,0,0,0,1.53-1.39c.08-.1.14-.21.23-.34a1.63,1.63,0,0,0-.29-.08c-.35,0-.69-.09-1-.11a21.41,21.41,0,0,0-4.73.27,40.64,40.64,0,0,0-6,1.54,74.49,74.49,0,0,0-9.34,3.84c-1.23.6-2.44,1.25-3.66,1.87a.43.43,0,0,1-.34.09l.36-.29a98.29,98.29,0,0,0,11-9.59,69.62,69.62,0,0,0,6.2-7.2,47.09,47.09,0,0,0,5.52-9.36,26.43,26.43,0,0,0,1.6-4.92c.05-.24.08-.5.13-.79l-.21.09c-.52.3-1.05.58-1.56.89a35,35,0,0,0-5.74,4.54,63.38,63.38,0,0,0-6.53,7.36,114.21,114.21,0,0,0-9.16,14.07c-.68,1.22-1.33,2.47-2,3.71l-.13.21-.07,0c0-.09.05-.18.08-.27.35-1.15.72-2.3,1.06-3.46A91.43,91.43,0,0,0,888.8,28.1c.24-1.51.44-3,.57-4.54.1-1.16.18-2.32.21-3.48a49.5,49.5,0,0,0-.13-5.58c-.1-1.18-.24-2.35-.44-3.51a30.53,30.53,0,0,0-1.72-6.24,18.81,18.81,0,0,0-2.5-4.49L884.58,0l-.12.25A39.52,39.52,0,0,0,881,12c-.17,1.2-.3,2.41-.39,3.62s-.17,2.49-.2,3.73c0,1.06,0,2.13,0,3.19,0,1.4.09,2.81.22,4.21.11,1.16.2,2.33.35,3.49.16,1.32.36,2.64.57,4,.3,1.93.68,3.84,1.12,5.74.17.76.36,1.53.55,2.29,0,.07.06.14,0,.25-.05-.12-.09-.21-.12-.3a50.83,50.83,0,0,0-7.51-13.68,56.91,56.91,0,0,0-10.54-10.55,49,49,0,0,0-5.44-3.68l-.31-.16c0,.14,0,.23,0,.31A18.32,18.32,0,0,0,860,17a31.56,31.56,0,0,0,3.1,6.24,62.89,62.89,0,0,0,5.34,7.22,122.29,122.29,0,0,0,11.95,12.14l2.09,1.85c.06.05.16.09.15.24l-.28-.17a48.93,48.93,0,0,0-8.21-4.37,44.46,44.46,0,0,0-13.47-3.34,30.31,30.31,0,0,0-3.3-.09l-.27,0,.2.22C857.63,37.27,857.94,37.56,858.26,37.83Z"/></g></g></svg>